<svg xmlns="http://www.w3.org/2000/svg" class="leaflet-zoom-animated" style="transform: translate3d(-219px, -112px, 0px);" viewBox="-219 -112 1415 724" width="1415" height="724"><g><path class="leaflet-clickable" fill="#4078c0" fill-opacity="0.2" fill-rule="evenodd" stroke="#4078c0" stroke-linecap="round" stroke-linejoin="round" stroke-opacity="0.5" stroke-width="1.5" d="M 368 284 L 370 284 L 371 291 L 366 292 L 367 284 Z" /></g><g><path class="leaflet-clickable" fill="#4078c0" fill-opacity="0.2" fill-rule="evenodd" stroke="#4078c0" stroke-linecap="round" stroke-linejoin="round" stroke-opacity="0.5" stroke-width="1.5" d="M 305 243 L 305 243 Z" /></g><g><path class="leaflet-clickable" fill="#4078c0" fill-opacity="0.2" fill-rule="evenodd" stroke="#4078c0" stroke-linecap="round" stroke-linejoin="round" stroke-opacity="0.5" stroke-width="1.5" d="M 305 242 L 305 242 Z" /></g><g><path class="leaflet-clickable" fill="#4078c0" fill-opacity="0.2" fill-rule="evenodd" stroke="#4078c0" stroke-linecap="round" stroke-linejoin="round" stroke-opacity="0.5" stroke-width="1.5" d="M 303 239 L 303 240 Z" /></g><g><path class="leaflet-clickable" fill="#4078c0" fill-opacity="0.2" fill-rule="evenodd" stroke="#4078c0" stroke-linecap="round" stroke-linejoin="round" stroke-opacity="0.5" stroke-width="1.5" d="M 302 240 L 304 244 L 302 240 Z" /></g><g><path class="leaflet-clickable" fill="#4078c0" fill-opacity="0.2" fill-rule="evenodd" stroke="#4078c0" stroke-linecap="round" stroke-linejoin="round" stroke-opacity="0.5" stroke-width="1.5" d="M 302 242 L 302 242 Z" /></g><g><path class="leaflet-clickable" fill="#4078c0" fill-opacity="0.2" fill-rule="evenodd" stroke="#4078c0" stroke-linecap="round" stroke-linejoin="round" stroke-opacity="0.5" stroke-width="1.5" d="M 302 238 L 303 239 L 302 238 Z" /></g><g><path class="leaflet-clickable" fill="#4078c0" fill-opacity="0.2" fill-rule="evenodd" stroke="#4078c0" stroke-linecap="round" stroke-linejoin="round" stroke-opacity="0.5" stroke-width="1.5" d="M 301 239 L 302 238 L 301 240 Z" /></g><g><path class="leaflet-clickable" fill="#4078c0" fill-opacity="0.2" fill-rule="evenodd" stroke="#4078c0" stroke-linecap="round" stroke-linejoin="round" stroke-opacity="0.5" stroke-width="1.5" d="M 301 240 L 299 236 L 301 239 Z" /></g><g><path class="leaflet-clickable" fill="#4078c0" fill-opacity="0.2" fill-rule="evenodd" stroke="#4078c0" stroke-linecap="round" stroke-linejoin="round" stroke-opacity="0.5" stroke-width="1.5" d="M 300 235 L 302 236 L 301 237 L 300 234 Z" /></g><g><path class="leaflet-clickable" fill="#4078c0" fill-opacity="0.2" fill-rule="evenodd" stroke="#4078c0" stroke-linecap="round" stroke-linejoin="round" stroke-opacity="0.5" stroke-width="1.5" d="M 299 237 L 299 237 Z" /></g><g><path class="leaflet-clickable" fill="#4078c0" fill-opacity="0.2" fill-rule="evenodd" stroke="#4078c0" stroke-linecap="round" stroke-linejoin="round" stroke-opacity="0.5" stroke-width="1.5" d="M 298 235 L 299 234 L 300 237 L 298 234 Z" /></g><g><path class="leaflet-clickable" fill="#4078c0" fill-opacity="0.2" fill-rule="evenodd" stroke="#4078c0" stroke-linecap="round" stroke-linejoin="round" stroke-opacity="0.5" stroke-width="1.5" d="M 283 229 L 282 230 L 283 229 Z" /></g><g><path class="leaflet-clickable" fill="#4078c0" fill-opacity="0.2" fill-rule="evenodd" stroke="#4078c0" stroke-linecap="round" stroke-linejoin="round" stroke-opacity="0.5" stroke-width="1.5" d="M 282 228 L 282 228 Z" /></g><g><path class="leaflet-clickable" fill="#4078c0" fill-opacity="0.2" fill-rule="evenodd" stroke="#4078c0" stroke-linecap="round" stroke-linejoin="round" stroke-opacity="0.5" stroke-width="1.5" d="M 282 195 L 289 195 L 291 197 L 291 229 L 293 229 L 297 233 L 299 231 L 307 241 L 306 244 L 300 232 L 300 234 L 298 233 L 298 235 L 293 230 L 288 230 L 286 228 L 283 229 L 283 227 L 281 227 L 282 230 L 277 232 L 276 231 L 279 226 L 275 228 L 273 232 L 274 233 L 267 240 L 258 244 L 261 241 L 264 241 L 264 239 L 268 236 L 269 233 L 266 234 L 264 232 L 262 234 L 262 230 L 257 229 L 256 224 L 259 220 L 260 221 L 263 218 L 263 216 L 257 216 L 255 215 L 255 213 L 253 213 L 257 209 L 259 209 L 259 211 L 262 210 L 262 207 L 260 207 L 255 202 L 259 200 L 262 194 L 269 190 L 271 191 L 270 192 L 271 191 L 276 194 L 282 194 Z" /></g><g><path class="leaflet-clickable" fill="#4078c0" fill-opacity="0.2" fill-rule="evenodd" stroke="#4078c0" stroke-linecap="round" stroke-linejoin="round" stroke-opacity="0.5" stroke-width="1.5" d="M 274 235 L 275 235 Z" /></g><g><path class="leaflet-clickable" fill="#4078c0" fill-opacity="0.2" fill-rule="evenodd" stroke="#4078c0" stroke-linecap="round" stroke-linejoin="round" stroke-opacity="0.5" stroke-width="1.5" d="M 273 236 L 274 235 L 275 238 L 273 238 L 273 236 Z" /></g><g><path class="leaflet-clickable" fill="#4078c0" fill-opacity="0.2" fill-rule="evenodd" stroke="#4078c0" stroke-linecap="round" stroke-linejoin="round" stroke-opacity="0.5" stroke-width="1.5" d="M 272 239 L 272 239 Z" /></g><g><path class="leaflet-clickable" fill="#4078c0" fill-opacity="0.2" fill-rule="evenodd" stroke="#4078c0" stroke-linecap="round" stroke-linejoin="round" stroke-opacity="0.5" stroke-width="1.5" d="M 271 241 L 270 241 Z" /></g><g><path class="leaflet-clickable" fill="#4078c0" fill-opacity="0.2" fill-rule="evenodd" stroke="#4078c0" stroke-linecap="round" stroke-linejoin="round" stroke-opacity="0.5" stroke-width="1.5" d="M 265 242 L 264 243 Z" /></g><g><path class="leaflet-clickable" fill="#4078c0" fill-opacity="0.2" fill-rule="evenodd" stroke="#4078c0" stroke-linecap="round" stroke-linejoin="round" stroke-opacity="0.5" stroke-width="1.5" d="M 264 242 L 263 242 Z" /></g><g><path class="leaflet-clickable" fill="#4078c0" fill-opacity="0.2" fill-rule="evenodd" stroke="#4078c0" stroke-linecap="round" stroke-linejoin="round" stroke-opacity="0.5" stroke-width="1.5" d="M 261 243 L 261 243 Z" /></g><g><path class="leaflet-clickable" fill="#4078c0" fill-opacity="0.2" fill-rule="evenodd" stroke="#4078c0" stroke-linecap="round" stroke-linejoin="round" stroke-opacity="0.5" stroke-width="1.5" d="M 261 219 L 261 219 Z" /></g><g><path class="leaflet-clickable" fill="#4078c0" fill-opacity="0.2" fill-rule="evenodd" stroke="#4078c0" stroke-linecap="round" stroke-linejoin="round" stroke-opacity="0.5" stroke-width="1.5" d="M 260 244 L 261 245 L 260 244 Z" /></g><g><path class="leaflet-clickable" fill="#4078c0" fill-opacity="0.2" fill-rule="evenodd" stroke="#4078c0" stroke-linecap="round" stroke-linejoin="round" stroke-opacity="0.5" stroke-width="1.5" d="M 257 245 L 256 245 Z" /></g><g><path class="leaflet-clickable" fill="#4078c0" fill-opacity="0.2" fill-rule="evenodd" stroke="#4078c0" stroke-linecap="round" stroke-linejoin="round" stroke-opacity="0.5" stroke-width="1.5" d="M 256 245 L 256 245 Z" /></g><g><path class="leaflet-clickable" fill="#4078c0" fill-opacity="0.2" fill-rule="evenodd" stroke="#4078c0" stroke-linecap="round" stroke-linejoin="round" stroke-opacity="0.5" stroke-width="1.5" d="M 255 229 L 256 230 L 254 230 L 255 229 Z" /></g><g><path class="leaflet-clickable" fill="#4078c0" fill-opacity="0.2" fill-rule="evenodd" stroke="#4078c0" stroke-linecap="round" stroke-linejoin="round" stroke-opacity="0.5" stroke-width="1.5" d="M 255 245 L 256 246 L 253 247 L 255 246 Z" /></g><g><path class="leaflet-clickable" fill="#4078c0" fill-opacity="0.2" fill-rule="evenodd" stroke="#4078c0" stroke-linecap="round" stroke-linejoin="round" stroke-opacity="0.5" stroke-width="1.5" d="M 252 247 L 253 246 L 252 248 Z" /></g><g><path class="leaflet-clickable" fill="#4078c0" fill-opacity="0.2" fill-rule="evenodd" stroke="#4078c0" stroke-linecap="round" stroke-linejoin="round" stroke-opacity="0.5" stroke-width="1.5" d="M 251 248 L 250 248 Z" /></g><g><path class="leaflet-clickable" fill="#4078c0" fill-opacity="0.2" fill-rule="evenodd" stroke="#4078c0" stroke-linecap="round" stroke-linejoin="round" stroke-opacity="0.5" stroke-width="1.5" d="M 250 237 L 250 237 Z" /></g><g><path class="leaflet-clickable" fill="#4078c0" fill-opacity="0.2" fill-rule="evenodd" stroke="#4078c0" stroke-linecap="round" stroke-linejoin="round" stroke-opacity="0.5" stroke-width="1.5" d="M 249 248 L 249 249 Z" /></g><g><path class="leaflet-clickable" fill="#4078c0" fill-opacity="0.2" fill-rule="evenodd" stroke="#4078c0" stroke-linecap="round" stroke-linejoin="round" stroke-opacity="0.5" stroke-width="1.5" d="M 248 218 L 252 220 L 251 221 L 248 219 Z" /></g><g><path class="leaflet-clickable" fill="#4078c0" fill-opacity="0.2" fill-rule="evenodd" stroke="#4078c0" stroke-linecap="round" stroke-linejoin="round" stroke-opacity="0.5" stroke-width="1.5" d="M 247 249 L 247 249 Z" /></g><g><path class="leaflet-clickable" fill="#4078c0" fill-opacity="0.2" fill-rule="evenodd" stroke="#4078c0" stroke-linecap="round" stroke-linejoin="round" stroke-opacity="0.5" stroke-width="1.5" d="M 245 250 L 245 250 Z" /></g><g><path class="leaflet-clickable" fill="#4078c0" fill-opacity="0.2" fill-rule="evenodd" stroke="#4078c0" stroke-linecap="round" stroke-linejoin="round" stroke-opacity="0.5" stroke-width="1.5" d="M 244 249 L 244 250 Z" /></g><g><path class="leaflet-clickable" fill="#4078c0" fill-opacity="0.2" fill-rule="evenodd" stroke="#4078c0" stroke-linecap="round" stroke-linejoin="round" stroke-opacity="0.5" stroke-width="1.5" d="M 241 250 L 240 251 L 241 250 Z" /></g><g><path class="leaflet-clickable" fill="#4078c0" fill-opacity="0.2" fill-rule="evenodd" stroke="#4078c0" stroke-linecap="round" stroke-linejoin="round" stroke-opacity="0.5" stroke-width="1.5" d="M 240 250 L 240 251 Z" /></g><g><path class="leaflet-clickable" fill="#4078c0" fill-opacity="0.2" fill-rule="evenodd" stroke="#4078c0" stroke-linecap="round" stroke-linejoin="round" stroke-opacity="0.5" stroke-width="1.5" d="M 239 250 L 239 251 Z" /></g><g><path class="leaflet-clickable" fill="#4078c0" fill-opacity="0.2" fill-rule="evenodd" stroke="#4078c0" stroke-linecap="round" stroke-linejoin="round" stroke-opacity="0.5" stroke-width="1.5" d="M 738 248 L 738 248 Z" /></g><g><path class="leaflet-clickable" fill="#4078c0" fill-opacity="0.2" fill-rule="evenodd" stroke="#4078c0" stroke-linecap="round" stroke-linejoin="round" stroke-opacity="0.5" stroke-width="1.5" d="M 337 280 L 337 290 L 334 290 L 329 288 L 329 282 L 330 280 L 335 280 Z" /></g><g><path class="leaflet-clickable" fill="#4078c0" fill-opacity="0.2" fill-rule="evenodd" stroke="#4078c0" stroke-linecap="round" stroke-linejoin="round" stroke-opacity="0.5" stroke-width="1.5" d="M 358 281 L 364 281 L 362 286 L 359 287 L 357 281 Z" /></g><g><path class="leaflet-clickable" fill="#4078c0" fill-opacity="0.2" fill-rule="evenodd" stroke="#4078c0" stroke-linecap="round" stroke-linejoin="round" stroke-opacity="0.5" stroke-width="1.5" d="M 317 271 L 320 271 L 321 277 L 330 285 L 329 288 L 325 288 L 323 285 L 320 284 L 319 280 L 316 277 L 315 271 Z" /></g><g><path class="leaflet-clickable" fill="#4078c0" fill-opacity="0.2" fill-rule="evenodd" stroke="#4078c0" stroke-linecap="round" stroke-linejoin="round" stroke-opacity="0.5" stroke-width="1.5" d="M 339 273 L 347 273 L 347 280 L 337 280 L 337 273 Z" /></g><g><path class="leaflet-clickable" fill="#4078c0" fill-opacity="0.2" fill-rule="evenodd" stroke="#4078c0" stroke-linecap="round" stroke-linejoin="round" stroke-opacity="0.5" stroke-width="1.5" d="M 388 271 L 390 271 L 388 273 L 387 271 Z" /></g><g><path class="leaflet-clickable" fill="#4078c0" fill-opacity="0.2" fill-rule="evenodd" stroke="#4078c0" stroke-linecap="round" stroke-linejoin="round" stroke-opacity="0.5" stroke-width="1.5" d="M 385 275 L 384 278 L 384 275 Z" /></g><g><path class="leaflet-clickable" fill="#4078c0" fill-opacity="0.2" fill-rule="evenodd" stroke="#4078c0" stroke-linecap="round" stroke-linejoin="round" stroke-opacity="0.5" stroke-width="1.5" d="M 382 277 L 382 277 Z" /></g><g><path class="leaflet-clickable" fill="#4078c0" fill-opacity="0.2" fill-rule="evenodd" stroke="#4078c0" stroke-linecap="round" stroke-linejoin="round" stroke-opacity="0.5" stroke-width="1.5" d="M 370 291 L 376 292 L 378 300 L 375 298 L 372 292 L 371 293 L 367 291 Z" /></g><g><path class="leaflet-clickable" fill="#4078c0" fill-opacity="0.2" fill-rule="evenodd" stroke="#4078c0" stroke-linecap="round" stroke-linejoin="round" stroke-opacity="0.5" stroke-width="1.5" d="M 374 284 L 377 288 L 375 292 L 371 291 L 370 285 L 373 284 Z" /></g><g><path class="leaflet-clickable" fill="#4078c0" fill-opacity="0.2" fill-rule="evenodd" stroke="#4078c0" stroke-linecap="round" stroke-linejoin="round" stroke-opacity="0.5" stroke-width="1.5" d="M 271 310 L 271 309 Z" /></g><g><path class="leaflet-clickable" fill="#4078c0" fill-opacity="0.2" fill-rule="evenodd" stroke="#4078c0" stroke-linecap="round" stroke-linejoin="round" stroke-opacity="0.5" stroke-width="1.5" d="M 269 306 L 269 307 Z" /></g><g><path class="leaflet-clickable" fill="#4078c0" fill-opacity="0.2" fill-rule="evenodd" stroke="#4078c0" stroke-linecap="round" stroke-linejoin="round" stroke-opacity="0.5" stroke-width="1.5" d="M 269 306 L 268 306 Z" /></g><g><path class="leaflet-clickable" fill="#4078c0" fill-opacity="0.2" fill-rule="evenodd" stroke="#4078c0" stroke-linecap="round" stroke-linejoin="round" stroke-opacity="0.5" stroke-width="1.5" d="M 267 305 L 267 306 Z" /></g><g><path class="leaflet-clickable" fill="#4078c0" fill-opacity="0.2" fill-rule="evenodd" stroke="#4078c0" stroke-linecap="round" stroke-linejoin="round" stroke-opacity="0.5" stroke-width="1.5" d="M 265 305 L 265 305 Z" /></g><g><path class="leaflet-clickable" fill="#4078c0" fill-opacity="0.2" fill-rule="evenodd" stroke="#4078c0" stroke-linecap="round" stroke-linejoin="round" stroke-opacity="0.5" stroke-width="1.5" d="M 327 257 L 329 263 L 332 266 L 334 266 L 334 271 L 326 271 L 326 257 Z" /></g><g><path class="leaflet-clickable" fill="#4078c0" fill-opacity="0.2" fill-rule="evenodd" stroke="#4078c0" stroke-linecap="round" stroke-linejoin="round" stroke-opacity="0.5" stroke-width="1.5" d="M 363 270 L 366 270 L 368 272 L 366 280 L 362 276 L 364 272 L 363 270 Z" /></g><g><path class="leaflet-clickable" fill="#4078c0" fill-opacity="0.2" fill-rule="evenodd" stroke="#4078c0" stroke-linecap="round" stroke-linejoin="round" stroke-opacity="0.5" stroke-width="1.5" d="M 370 272 L 371 278 L 368 279 L 367 276 L 369 272 Z" /></g><g><path class="leaflet-clickable" fill="#4078c0" fill-opacity="0.2" fill-rule="evenodd" stroke="#4078c0" stroke-linecap="round" stroke-linejoin="round" stroke-opacity="0.5" stroke-width="1.5" d="M 362 268 L 364 272 L 361 274 L 357 274 L 355 272 L 355 268 Z" /></g><g><path class="leaflet-clickable" fill="#4078c0" fill-opacity="0.2" fill-rule="evenodd" stroke="#4078c0" stroke-linecap="round" stroke-linejoin="round" stroke-opacity="0.5" stroke-width="1.5" d="M 347 275 L 356 275 L 357 280 L 347 280 L 347 275 Z" /></g><g><path class="leaflet-clickable" fill="#4078c0" fill-opacity="0.2" fill-rule="evenodd" stroke="#4078c0" stroke-linecap="round" stroke-linejoin="round" stroke-opacity="0.5" stroke-width="1.5" d="M 373 277 L 375 278 L 374 281 L 365 281 L 372 277 Z" /></g><g><path class="leaflet-clickable" fill="#4078c0" fill-opacity="0.2" fill-rule="evenodd" stroke="#4078c0" stroke-linecap="round" stroke-linejoin="round" stroke-opacity="0.5" stroke-width="1.5" d="M 359 287 L 363 288 L 362 291 L 364 291 L 365 294 L 358 293 L 358 287 Z" /></g><g><path class="leaflet-clickable" fill="#4078c0" fill-opacity="0.2" fill-rule="evenodd" stroke="#4078c0" stroke-linecap="round" stroke-linejoin="round" stroke-opacity="0.5" stroke-width="1.5" d="M 391 269 L 392 262 L 394 260 L 397 266 L 394 266 L 392 269 Z" /></g><g><path class="leaflet-clickable" fill="#4078c0" fill-opacity="0.2" fill-rule="evenodd" stroke="#4078c0" stroke-linecap="round" stroke-linejoin="round" stroke-opacity="0.5" stroke-width="1.5" d="M 384 279 L 384 279 Z" /></g><g><path class="leaflet-clickable" fill="#4078c0" fill-opacity="0.2" fill-rule="evenodd" stroke="#4078c0" stroke-linecap="round" stroke-linejoin="round" stroke-opacity="0.5" stroke-width="1.5" d="M 379 275 L 384 275 L 384 278 L 384 276 L 382 278 L 383 277 L 381 275 L 379 276 Z" /></g><g><path class="leaflet-clickable" fill="#4078c0" fill-opacity="0.2" fill-rule="evenodd" stroke="#4078c0" stroke-linecap="round" stroke-linejoin="round" stroke-opacity="0.5" stroke-width="1.5" d="M 391 269 L 392 272 L 393 271 L 388 271 L 391 270 Z" /></g><g><path class="leaflet-clickable" fill="#4078c0" fill-opacity="0.2" fill-rule="evenodd" stroke="#4078c0" stroke-linecap="round" stroke-linejoin="round" stroke-opacity="0.5" stroke-width="1.5" d="M 373 272 L 369 272 L 369 266 L 371 264 L 373 264 L 373 267 L 375 268 L 375 270 L 373 271 Z" /></g><g><path class="leaflet-clickable" fill="#4078c0" fill-opacity="0.2" fill-rule="evenodd" stroke="#4078c0" stroke-linecap="round" stroke-linejoin="round" stroke-opacity="0.5" stroke-width="1.5" d="M 370 264 L 370 264 Z" /></g><g><path class="leaflet-clickable" fill="#4078c0" fill-opacity="0.2" fill-rule="evenodd" stroke="#4078c0" stroke-linecap="round" stroke-linejoin="round" stroke-opacity="0.5" stroke-width="1.5" d="M 367 265 L 367 263 L 364 262 L 366 260 L 366 262 L 367 261 L 373 263 L 369 263 L 367 265 Z" /></g><g><path class="leaflet-clickable" fill="#4078c0" fill-opacity="0.2" fill-rule="evenodd" stroke="#4078c0" stroke-linecap="round" stroke-linejoin="round" stroke-opacity="0.5" stroke-width="1.5" d="M 366 259 L 366 259 Z" /></g><g><path class="leaflet-clickable" fill="#4078c0" fill-opacity="0.2" fill-rule="evenodd" stroke="#4078c0" stroke-linecap="round" stroke-linejoin="round" stroke-opacity="0.5" stroke-width="1.5" d="M 361 262 L 360 265 L 362 267 L 355 268 L 354 258 L 363 258 L 364 259 L 361 262 Z" /></g><g><path class="leaflet-clickable" fill="#4078c0" fill-opacity="0.2" fill-rule="evenodd" stroke="#4078c0" stroke-linecap="round" stroke-linejoin="round" stroke-opacity="0.5" stroke-width="1.5" d="M 366 284 L 366 292 L 362 291 L 362 287 L 364 284 Z" /></g><g><path class="leaflet-clickable" fill="#4078c0" fill-opacity="0.2" fill-rule="evenodd" stroke="#4078c0" stroke-linecap="round" stroke-linejoin="round" stroke-opacity="0.5" stroke-width="1.5" d="M 361 274 L 364 277 L 363 278 L 365 282 L 357 280 L 356 275 L 359 274 Z" /></g><g><path class="leaflet-clickable" fill="#4078c0" fill-opacity="0.2" fill-rule="evenodd" stroke="#4078c0" stroke-linecap="round" stroke-linejoin="round" stroke-opacity="0.5" stroke-width="1.5" d="M 344 257 L 344 265 L 331 266 L 327 260 L 327 257 L 336 257 Z" /></g><g><path class="leaflet-clickable" fill="#4078c0" fill-opacity="0.2" fill-rule="evenodd" stroke="#4078c0" stroke-linecap="round" stroke-linejoin="round" stroke-opacity="0.5" stroke-width="1.5" d="M 345 269 L 354 269 L 356 275 L 347 275 L 347 273 L 344 273 L 344 269 Z" /></g><g><path class="leaflet-clickable" fill="#4078c0" fill-opacity="0.2" fill-rule="evenodd" stroke="#4078c0" stroke-linecap="round" stroke-linejoin="round" stroke-opacity="0.5" stroke-width="1.5" d="M 326 271 L 330 271 L 329 283 L 321 277 L 321 271 L 323 271 Z" /></g><g><path class="leaflet-clickable" fill="#4078c0" fill-opacity="0.2" fill-rule="evenodd" stroke="#4078c0" stroke-linecap="round" stroke-linejoin="round" stroke-opacity="0.5" stroke-width="1.5" d="M 391 265 L 391 270 L 389 270 L 391 265 Z" /></g><g><path class="leaflet-clickable" fill="#4078c0" fill-opacity="0.2" fill-rule="evenodd" stroke="#4078c0" stroke-linecap="round" stroke-linejoin="round" stroke-opacity="0.5" stroke-width="1.5" d="M 386 273 L 386 276 L 386 272 Z" /></g><g><path class="leaflet-clickable" fill="#4078c0" fill-opacity="0.2" fill-rule="evenodd" stroke="#4078c0" stroke-linecap="round" stroke-linejoin="round" stroke-opacity="0.5" stroke-width="1.5" d="M 339 280 L 346 280 L 345 289 L 337 290 L 337 280 Z" /></g><g><path class="leaflet-clickable" fill="#4078c0" fill-opacity="0.2" fill-rule="evenodd" stroke="#4078c0" stroke-linecap="round" stroke-linejoin="round" stroke-opacity="0.5" stroke-width="1.5" d="M 388 265 L 388 274 L 385 271 L 379 271 L 380 268 L 382 269 L 385 265 L 387 265 Z" /></g><g><path class="leaflet-clickable" fill="#4078c0" fill-opacity="0.2" fill-rule="evenodd" stroke="#4078c0" stroke-linecap="round" stroke-linejoin="round" stroke-opacity="0.5" stroke-width="1.5" d="M 377 281 L 384 281 L 384 283 L 381 286 L 375 283 L 372 284 L 376 281 Z" /></g><g><path class="leaflet-clickable" fill="#4078c0" fill-opacity="0.2" fill-rule="evenodd" stroke="#4078c0" stroke-linecap="round" stroke-linejoin="round" stroke-opacity="0.5" stroke-width="1.5" d="M 354 257 L 355 262 L 344 263 L 344 257 Z" /></g><g><path class="leaflet-clickable" fill="#4078c0" fill-opacity="0.2" fill-rule="evenodd" stroke="#4078c0" stroke-linecap="round" stroke-linejoin="round" stroke-opacity="0.5" stroke-width="1.5" d="M 377 271 L 376 276 L 373 277 L 371 272 L 377 271 Z" /></g><g><path class="leaflet-clickable" fill="#4078c0" fill-opacity="0.2" fill-rule="evenodd" stroke="#4078c0" stroke-linecap="round" stroke-linejoin="round" stroke-opacity="0.5" stroke-width="1.5" d="M 350 280 L 357 280 L 358 286 L 352 286 L 350 281 L 347 280 Z" /></g><g><path class="leaflet-clickable" fill="#4078c0" fill-opacity="0.2" fill-rule="evenodd" stroke="#4078c0" stroke-linecap="round" stroke-linejoin="round" stroke-opacity="0.5" stroke-width="1.5" d="M 317 263 L 326 263 L 326 271 L 315 271 L 317 263 Z" /></g><g><path class="leaflet-clickable" fill="#4078c0" fill-opacity="0.2" fill-rule="evenodd" stroke="#4078c0" stroke-linecap="round" stroke-linejoin="round" stroke-opacity="0.5" stroke-width="1.5" d="M 379 271 L 385 271 L 386 274 L 377 275 L 377 271 L 379 271 Z" /></g><g><path class="leaflet-clickable" fill="#4078c0" fill-opacity="0.2" fill-rule="evenodd" stroke="#4078c0" stroke-linecap="round" stroke-linejoin="round" stroke-opacity="0.5" stroke-width="1.5" d="M 391 272 L 391 272 Z" /></g><g><path class="leaflet-clickable" fill="#4078c0" fill-opacity="0.2" fill-rule="evenodd" stroke="#4078c0" stroke-linecap="round" stroke-linejoin="round" stroke-opacity="0.5" stroke-width="1.5" d="M 390 271 L 391 272 L 390 271 Z" /></g><g><path class="leaflet-clickable" fill="#4078c0" fill-opacity="0.2" fill-rule="evenodd" stroke="#4078c0" stroke-linecap="round" stroke-linejoin="round" stroke-opacity="0.5" stroke-width="1.5" d="M 374 284 L 379 284 L 380 286 L 377 289 L 374 284 Z" /></g><g><path class="leaflet-clickable" fill="#4078c0" fill-opacity="0.2" fill-rule="evenodd" stroke="#4078c0" stroke-linecap="round" stroke-linejoin="round" stroke-opacity="0.5" stroke-width="1.5" d="M 344 263 L 355 263 L 355 270 L 345 269 L 344 265 Z" /></g><g><path class="leaflet-clickable" fill="#4078c0" fill-opacity="0.2" fill-rule="evenodd" stroke="#4078c0" stroke-linecap="round" stroke-linejoin="round" stroke-opacity="0.5" stroke-width="1.5" d="M 367 281 L 376 281 L 374 283 L 364 284 L 365 281 Z" /></g><g><path class="leaflet-clickable" fill="#4078c0" fill-opacity="0.2" fill-rule="evenodd" stroke="#4078c0" stroke-linecap="round" stroke-linejoin="round" stroke-opacity="0.5" stroke-width="1.5" d="M 347 281 L 350 281 L 350 285 L 358 287 L 359 292 L 353 297 L 353 299 L 349 295 L 349 293 L 346 292 L 346 294 L 340 289 L 345 289 L 346 281 Z" /></g><g><path class="leaflet-clickable" fill="#4078c0" fill-opacity="0.2" fill-rule="evenodd" stroke="#4078c0" stroke-linecap="round" stroke-linejoin="round" stroke-opacity="0.5" stroke-width="1.5" d="M 332 271 L 334 271 L 334 273 L 337 273 L 337 280 L 330 280 L 330 271 Z" /></g><g><path class="leaflet-clickable" fill="#4078c0" fill-opacity="0.2" fill-rule="evenodd" stroke="#4078c0" stroke-linecap="round" stroke-linejoin="round" stroke-opacity="0.5" stroke-width="1.5" d="M 390 265 L 389 270 L 389 265 Z" /></g><g><path class="leaflet-clickable" fill="#4078c0" fill-opacity="0.2" fill-rule="evenodd" stroke="#4078c0" stroke-linecap="round" stroke-linejoin="round" stroke-opacity="0.5" stroke-width="1.5" d="M 381 276 L 384 279 L 384 281 L 373 281 L 375 279 L 378 280 L 380 276 Z" /></g><g><path class="leaflet-clickable" fill="#4078c0" fill-opacity="0.2" fill-rule="evenodd" stroke="#4078c0" stroke-linecap="round" stroke-linejoin="round" stroke-opacity="0.5" stroke-width="1.5" d="M 326 257 L 326 262 L 321 264 L 316 263 L 315 258 L 318 259 L 317 257 Z" /></g><g><path class="leaflet-clickable" fill="#4078c0" fill-opacity="0.2" fill-rule="evenodd" stroke="#4078c0" stroke-linecap="round" stroke-linejoin="round" stroke-opacity="0.5" stroke-width="1.5" d="M 317 258 L 318 259 L 317 258 Z" /></g><g><path class="leaflet-clickable" fill="#4078c0" fill-opacity="0.2" fill-rule="evenodd" stroke="#4078c0" stroke-linecap="round" stroke-linejoin="round" stroke-opacity="0.5" stroke-width="1.5" d="M 317 258 L 317 258 Z" /></g><g><path class="leaflet-clickable" fill="#4078c0" fill-opacity="0.2" fill-rule="evenodd" stroke="#4078c0" stroke-linecap="round" stroke-linejoin="round" stroke-opacity="0.5" stroke-width="1.5" d="M 377 274 L 380 276 L 381 275 L 377 280 L 374 278 L 377 274 Z" /></g><g><path class="leaflet-clickable" fill="#4078c0" fill-opacity="0.2" fill-rule="evenodd" stroke="#4078c0" stroke-linecap="round" stroke-linejoin="round" stroke-opacity="0.5" stroke-width="1.5" d="M 363 262 L 367 263 L 368 266 L 366 270 L 363 270 L 360 265 L 360 263 L 362 261 L 363 262 Z" /></g><g><path class="leaflet-clickable" fill="#4078c0" fill-opacity="0.2" fill-rule="evenodd" stroke="#4078c0" stroke-linecap="round" stroke-linejoin="round" stroke-opacity="0.5" stroke-width="1.5" d="M 337 265 L 344 265 L 344 273 L 334 273 L 334 265 Z" /></g><g><path class="leaflet-clickable" fill="#4078c0" fill-opacity="0.2" fill-rule="evenodd" stroke="#4078c0" stroke-linecap="round" stroke-linejoin="round" stroke-opacity="0.5" stroke-width="1.5" d="M 397 311 L 396 310 L 398 311 Z" /></g></svg>